
      <svg data-logo="logo" xmlns="http://www.w3.org/2000/svg" viewBox="0 0 333 43">
        <g id="logogram" transform="translate(0, 1) rotate(0) "><path d="M0.452637 20.81C0.452637 9.76427 9.40694 0.809967 20.4526 0.809967H46.7026C57.7484 0.809967 66.7026 9.76427 66.7026 20.81V40.81H20.4526C9.40694 40.81 0.452637 31.8557 0.452637 20.81Z" fill="#4845D2"/><path d="M46.7026 8.30997H20.4526C13.5491 8.30997 7.95264 13.9064 7.95264 20.81C7.95264 27.7135 13.5491 33.31 20.4526 33.31H46.7026C53.6062 33.31 59.2026 27.7135 59.2026 20.81C59.2026 13.9064 53.6062 8.30997 46.7026 8.30997Z" fill="#A5B4FC"/><path d="M20.4526 27.06C23.9044 27.06 26.7026 24.2617 26.7026 20.81C26.7026 17.3582 23.9044 14.56 20.4526 14.56C17.0009 14.56 14.2026 17.3582 14.2026 20.81C14.2026 24.2617 17.0009 27.06 20.4526 27.06Z" fill="black"/><path d="M17.9526 19.56C18.643 19.56 19.2026 19.0003 19.2026 18.31C19.2026 17.6196 18.643 17.06 17.9526 17.06C17.2623 17.06 16.7026 17.6196 16.7026 18.31C16.7026 19.0003 17.2623 19.56 17.9526 19.56Z" fill="white"/><path d="M47.9526 27.06C51.4044 27.06 54.2026 24.2617 54.2026 20.81C54.2026 17.3582 51.4044 14.56 47.9526 14.56C44.5009 14.56 41.7026 17.3582 41.7026 20.81C41.7026 24.2617 44.5009 27.06 47.9526 27.06Z" fill="black"/><path d="M45.4526 19.56C46.143 19.56 46.7026 19.0003 46.7026 18.31C46.7026 17.6196 46.143 17.06 45.4526 17.06C44.7623 17.06 44.2026 17.6196 44.2026 18.31C44.2026 19.0003 44.7623 19.56 45.4526 19.56Z" fill="white"/></g>
        <g id="logotype" transform="translate(73, 7.5)"><path fill="#111111" d="M20.39 9.89L20.39 8.39Q20.30 7.79 19.97 7.26Q19.64 6.73 19.12 6.35Q18.60 5.96 17.94 5.74Q17.28 5.52 16.56 5.52L16.56 5.52Q15.91 5.52 15.35 5.65Q14.78 5.79 14.37 6.07Q13.95 6.36 13.70 6.80Q13.45 7.24 13.45 7.86L13.45 7.86Q13.45 8.63 13.78 9.08Q14.12 9.53 14.64 9.82Q15.16 10.12 15.79 10.29Q16.42 10.46 17.02 10.66L17.02 10.66L21.72 12.23Q22.70 12.58 23.55 13.17Q24.41 13.77 25.03 14.63Q25.65 15.48 26.01 16.59Q26.37 17.70 26.37 19.09L26.37 19.09Q26.37 20.97 25.68 22.52Q24.99 24.08 23.74 25.19Q22.49 26.30 20.75 26.91Q19.01 27.53 16.89 27.53L16.89 27.53Q15.40 27.53 14.07 27.20Q12.75 26.86 11.66 26.23Q10.56 25.60 9.74 24.72Q8.92 23.84 8.46 22.73L8.46 22.73L6.70 22.73L6.70 17.58L12.89 17.58L12.89 18.64Q12.89 19.41 13.14 20.06Q13.38 20.71 13.88 21.19Q14.37 21.67 15.13 21.93Q15.88 22.20 16.89 22.20L16.89 22.20Q18.42 22.20 19.23 21.49Q20.03 20.78 20.03 19.51L20.03 19.51Q20.03 18.87 19.75 18.43Q19.47 17.99 19.02 17.69Q18.58 17.40 18.03 17.19Q17.48 16.99 16.95 16.81L16.95 16.81L13.04 15.55Q11.93 15.21 10.90 14.59Q9.86 13.98 9.07 13.05Q8.27 12.13 7.80 10.89Q7.33 9.65 7.33 8.06L7.33 8.06Q7.33 6.22 8.02 4.77Q8.70 3.33 9.93 2.34Q11.16 1.35 12.85 0.84Q14.54 0.32 16.56 0.32L16.56 0.32Q18.15 0.32 19.50 0.69Q20.85 1.06 21.92 1.67Q22.99 2.29 23.73 3.08Q24.47 3.88 24.87 4.73L24.87 4.73L26.58 4.73L26.58 9.89L20.39 9.89ZM29.21 5.79L29.21 1.09L40.30 1.09L40.30 5.79L37.56 5.79L37.56 13.33L45.85 6.10L45.85 1.09L54.69 1.09L54.69 6.13L52.76 6.13L44.13 13.55L52.40 21.92L54.50 21.92L54.50 27L45.90 27L45.90 21.92L37.56 13.58L37.56 22.32L40.30 22.32L40.30 27L29.21 27L29.21 22.32L31.89 22.32L31.89 5.79L29.21 5.79ZM57.49 5.77L57.49 1.09L68.58 1.09L68.58 5.77L65.85 5.77L65.85 22.32L68.58 22.32L68.58 27L57.49 27L57.49 22.32L60.17 22.32L60.17 5.77L57.49 5.77ZM71.33 5.79L71.33 1.09L82.43 1.09L82.43 5.79L79.69 5.79L79.69 22.32L85.33 22.32Q85.55 22.32 85.77 22.19Q85.98 22.06 86.14 21.86Q86.31 21.65 86.41 21.41Q86.51 21.17 86.51 20.95L86.51 20.95L86.51 17.48L92.05 17.48L92.05 27L71.33 27L71.33 22.32L74.02 22.32L74.02 5.79L71.33 5.79ZM94.34 5.79L94.34 1.09L105.43 1.09L105.43 5.79L102.69 5.79L102.69 22.32L108.33 22.32Q108.56 22.32 108.77 22.19Q108.98 22.06 109.15 21.86Q109.31 21.65 109.41 21.41Q109.51 21.17 109.51 20.95L109.51 20.95L109.51 17.48L115.05 17.48L115.05 27L94.34 27L94.34 22.32L97.02 22.32L97.02 5.79L94.34 5.79ZM127.17 19.33L116.45 19.33L116.45 14.64L127.17 14.64L127.17 19.33ZM154.39 27L149.28 27L149.28 22.56Q148.22 24.42 147.21 25.29Q146.21 26.16 144.93 26.69Q143.66 27.22 141.52 27.21L141.52 27.21Q140.46 27.19 139.40 26.96Q138.34 26.73 137.35 26.31Q136.36 25.89 135.41 25.30Q134.46 24.71 133.70 23.94L133.70 23.94Q131.80 22.03 130.75 19.51Q129.70 16.99 129.70 14.01L129.70 14.01Q129.70 12.18 130.14 10.47Q130.58 8.77 131.39 7.28Q132.19 5.79 133.33 4.57Q134.46 3.35 135.86 2.48Q137.25 1.60 138.86 1.13Q140.46 0.65 142.22 0.65L142.22 0.65Q144.24 0.65 145.73 1.19Q147.21 1.72 148.92 3.19L148.92 3.19L152.75 3.19L152.75 8.97L147.47 8.97Q146.68 7.76 145.99 7.21Q145.30 6.66 144.49 6.30Q143.68 5.95 142.22 5.95L142.22 5.95Q140.79 5.95 139.56 6.59Q138.33 7.24 137.43 8.35Q136.53 9.45 136.02 10.94Q135.51 12.44 135.51 14.01L135.51 14.01Q135.51 15.57 135.97 16.97Q136.43 18.37 137.37 19.49Q138.31 20.61 139.56 21.21Q140.80 21.80 142.22 21.80L142.22 21.80Q144.03 21.80 145.38 20.75Q146.73 19.69 147.33 17.86L147.33 17.86L142.39 17.86L142.39 13.17L154.39 13.17L154.39 27ZM171.79 27L171.79 22.32L174.37 22.32L173.21 18.59L165.24 18.59L164.08 22.32L166.82 22.32L166.82 27L156.99 27L156.99 22.32L158.92 22.32L165.98 1.09L172.83 1.09L179.74 22.32L181.62 22.32L181.62 27L171.79 27ZM169.19 5.79L166.59 14.22L171.82 14.22L169.19 5.79ZM182.88 5.79L182.88 1.09L193.27 1.09L193.27 5.79L190.90 5.79L190.90 16.54Q190.90 18.01 191.23 19.04Q191.56 20.06 192.16 20.71Q192.76 21.36 193.58 21.66Q194.40 21.96 195.37 21.96L195.37 21.96Q196.38 21.96 197.21 21.70Q198.04 21.45 198.63 20.82Q199.22 20.20 199.53 19.16Q199.85 18.11 199.85 16.54L199.85 16.54L199.85 5.79L197.10 5.79L197.10 1.09L207.49 1.09L207.49 5.79L205.42 5.79L205.42 15.87Q205.42 18.61 204.64 20.74Q203.85 22.86 202.47 24.33Q201.10 25.80 199.24 26.57Q197.39 27.34 195.27 27.34L195.27 27.34Q193.17 27.34 191.34 26.58Q189.51 25.82 188.15 24.38Q186.79 22.93 186.01 20.86Q185.22 18.80 185.22 16.18L185.22 16.18L185.22 5.79L182.88 5.79ZM234.51 27L229.40 27L229.40 22.56Q228.34 24.42 227.33 25.29Q226.32 26.16 225.05 26.69Q223.78 27.22 221.64 27.21L221.64 27.21Q220.58 27.19 219.52 26.96Q218.46 26.73 217.47 26.31Q216.48 25.89 215.53 25.30Q214.58 24.71 213.81 23.94L213.81 23.94Q211.92 22.03 210.86 19.51Q209.81 16.99 209.81 14.01L209.81 14.01Q209.81 12.18 210.26 10.47Q210.70 8.77 211.51 7.28Q212.31 5.79 213.45 4.57Q214.58 3.35 215.97 2.48Q217.37 1.60 218.97 1.13Q220.58 0.65 222.34 0.65L222.34 0.65Q224.36 0.65 225.84 1.19Q227.33 1.72 229.04 3.19L229.04 3.19L232.87 3.19L232.87 8.97L227.59 8.97Q226.80 7.76 226.11 7.21Q225.42 6.66 224.60 6.30Q223.79 5.95 222.34 5.95L222.34 5.95Q220.90 5.95 219.67 6.59Q218.44 7.24 217.55 8.35Q216.65 9.45 216.14 10.94Q215.62 12.44 215.62 14.01L215.62 14.01Q215.62 15.57 216.09 16.97Q216.55 18.37 217.49 19.49Q218.43 20.61 219.67 21.21Q220.92 21.80 222.34 21.80L222.34 21.80Q224.15 21.80 225.50 20.75Q226.85 19.69 227.45 17.86L227.45 17.86L222.51 17.86L222.51 13.17L234.51 13.17L234.51 27ZM238.58 6.25L238.58 1.09L259.19 1.09L259.19 9.93L253.61 9.93L253.61 6.25L246.97 6.25L246.97 11.36L252.11 11.36L252.11 16.32L246.97 16.32L246.97 22.32L253.61 22.32L253.61 17.72L259.19 17.72L259.19 27L238.58 27L238.58 22.32L241.29 22.32L241.29 6.25L238.58 6.25Z"/></g>
        
      </svg>
    